Coordinates
version=1
nRows=7
nColumns=46
inDegrees=yes

Units are S.I. units (second, meters, Newtons, ...)
Angles are in degrees.

endheader
time	pelvis_tilt	pelvis_list	pelvis_rotation	pelvis_tx	pelvis_ty	pelvis_tz	bb_angle	bb_tx	bb_ty	bb_tz	hip_flexion_r	hip_adduction_r	hip_rotation_r	knee_angle_r	knee_angle_r_beta	ankle_angle_r	subtalar_angle_r	mtp_angle_r	crank_angle_r	hip_flexion_l	hip_adduction_l	hip_rotation_l	knee_angle_l	knee_angle_l_beta	ankle_angle_l	subtalar_angle_l	mtp_angle_l	crank_angle_l	lumbar_extension	lumbar_bending	lumbar_rotation	arm_flex_r	arm_add_r	arm_rot_r	elbow_flex_r	pro_sup_r	wrist_flex_r	wrist_dev_r	arm_flex_l	arm_add_l	arm_rot_l	elbow_flex_l	pro_sup_l	wrist_flex_l	wrist_dev_l
      2.50000000	    -34.27026279	      2.01706291	     10.50593120	      0.16282201	      1.10349251	     -0.28024581	      0.00000000	      0.50000000	      0.00000000	      0.25000000	     63.20561035	    -11.94160256	      0.08393585	     65.03287552	      1.13503780	     10.17749506	     -6.92584679	      0.00000000	      0.00000000	     95.79081831	     -0.79244875	     -4.55912503	     84.22698821	      1.47003826	     26.43194661	      2.24525959	      0.00000000	      0.00000000	    -40.89260074	      3.15051024	    -35.61812615	     70.01361148	     11.17944142	     29.89215852	     61.39194488	     47.83178762	      0.00000000	      0.00000000	      2.92225757	    -90.80889025	    -17.29998057	    106.55801294	     47.55931548	      0.00000000	      0.00000000
      2.50500000	    -34.38096869	      1.85603184	     10.50057787	      0.16423977	      1.10399914	     -0.28058857	      0.00000000	      0.50000000	      0.00000000	      0.25000000	     63.14554888	    -11.87957343	     -0.01863059	     65.08611288	      1.13596697	     10.55366911	     -6.67317232	      0.00000000	      0.00000000	     95.68861831	     -0.74960564	     -4.44980085	     83.92321015	      1.46473634	     26.30150576	      2.21451089	      0.00000000	      0.00000000	    -40.83677176	      3.27324406	    -35.50899114	     69.74860079	     11.09056085	     29.86263992	     61.60548591	     47.79867072	      0.00000000	      0.00000000	      2.91908866	    -90.69136826	    -17.07348783	    106.76970007	     47.66296117	      0.00000000	      0.00000000
      2.51000000	    -34.41330636	      1.76383734	     10.43933251	      0.16561843	      1.10448992	     -0.28088013	      0.00000000	      0.50000000	      0.00000000	      0.25000000	     63.01881779	    -11.78959122	      0.00692219	     65.14918673	      1.13706781	     10.83785449	     -6.41499613	      0.00000000	      0.00000000	     95.50657598	     -0.73170501	     -4.35578809	     83.65056426	      1.45997777	     26.25587358	      2.07498568	      0.00000000	      0.00000000	    -40.79978999	      3.37529636	    -35.34045382	     69.53541784	     10.95597183	     30.05436275	     61.80616636	     47.77298970	      0.00000000	      0.00000000	      2.97200131	    -90.61938746	    -16.79419575	    106.84893383	     47.76124387	      0.00000000	      0.00000000
      2.51500000	    -34.57378652	      1.69001282	     10.44457944	      0.16692481	      1.10499581	     -0.28135877	      0.00000000	      0.50000000	      0.00000000	      0.25000000	     63.02116037	    -11.82680063	     -0.03527724	     65.19395367	      1.13784914	     11.15100427	     -6.20261108	      0.00000000	      0.00000000	     95.39820956	     -0.62967474	     -4.31756978	     83.27976104	      1.45350603	     26.15941383	      1.93895895	      0.00000000	      0.00000000	    -40.71342087	      3.46985559	    -35.23390743	     69.20848173	     10.94727487	     29.84370606	     62.12095150	     47.72125529	      0.00000000	      0.00000000	      3.13335344	    -90.33806218	    -16.70008105	    106.94836150	     47.80653933	      0.00000000	      0.00000000
      2.52000000	    -34.64208856	      1.52564148	     10.37150541	      0.16835510	      1.10553499	     -0.28162001	      0.00000000	      0.50000000	      0.00000000	      0.25000000	     62.88601837	    -11.71584588	     -0.14344731	     65.19484089	      1.13786463	     11.61104732	     -5.88541133	      0.00000000	      0.00000000	     95.25046731	     -0.65006257	     -4.16430108	     82.98428920	      1.44834907	     26.06226420	      1.91791078	      0.00000000	      0.00000000	    -40.65936373	      3.61209769	    -34.98762682	     69.02972327	     10.87926497	     29.93989398	     62.29133368	     47.68325085	      0.00000000	      0.00000000	      3.06995127	    -90.26596301	    -16.36171822	    107.06754257	     47.89520806	      0.00000000	      0.00000000
      2.52500000	    -34.71872001	      1.44054201	     10.35079096	      0.16969157	      1.10608304	     -0.28204199	      0.00000000	      0.50000000	      0.00000000	      0.25000000	     62.77969042	    -11.71820476	     -0.19984513	     65.21944205	      1.13829400	     12.01211991	     -5.57228288	      0.00000000	      0.00000000	     95.08585856	     -0.58820772	     -4.11144464	     82.65755849	      1.44264655	     25.93637600	      1.80615031	      0.00000000	      0.00000000	    -40.61482652	      3.70733800	    -34.83550513	     68.85939037	     10.76671659	     30.06156595	     62.41048462	     47.68185959	      0.00000000	      0.00000000	      3.11309539	    -90.15860568	    -16.10182825	    107.18065097	     47.99633935	      0.00000000	      0.00000000
      2.53000000	    -34.87160968	      1.65511886	     10.16729595	      0.17118577	      1.10676250	     -0.28214203	      0.00000000	      0.50000000	      0.00000000	      0.25000000	     62.77528239	    -11.68965163	      0.15236851	     65.19198424	      1.13781477	     12.23759863	     -5.70201085	      0.00000000	      0.00000000	     94.85481435	     -0.68507344	     -4.38889928	     82.26283017	      1.43575724	     25.68755961	      1.14269982	      0.00000000	      0.00000000	    -40.53090534	      3.47640915	    -34.92177015	     68.35287482	     11.08411873	     29.61618723	     63.11120100	     47.65665363	      0.00000000	      0.00000000	      3.41466247	    -89.25234387	    -16.07299286	    106.86506325	     47.94162019	      0.00000000	      0.00000000
